<?xml version="1.0" encoding="UTF-8"?><svg id="_Слой_2" xmlns="http://www.w3.org/2000/svg" width="31" height="29" viewBox="0 0 31 29"><defs><style>.cls-1{fill:#fff;}.cls-2{fill:#d9d9d9;}</style></defs><g id="_Слой_2-2"><rect class="cls-2" width="31" height="29" rx="2.03" ry="2.03"/><path id="add" class="cls-1" d="M15.5,4.5c-5.52,0-10,4.48-10,10s4.48,10,10,10,10-4.48,10-10-4.48-10-10-10ZM19,15.6h-2.41v2.4c0,.61-.49,1.1-1.1,1.1s-1.1-.49-1.1-1.1v-2.4h-2.4c-.61,0-1.1-.49-1.1-1.1s.49-1.1,1.1-1.1h2.4v-2.4c0-.61.49-1.1,1.1-1.1s1.1.49,1.1,1.1v2.4h2.41c.6,0,1.1.49,1.1,1.1s-.5,1.1-1.1,1.1Z"/></g></svg>