<?xml version="1.0" encoding="UTF-8"?><svg id="_Слой_2" xmlns="http://www.w3.org/2000/svg" width="31" height="31" viewBox="0 0 31 31"><defs><style>.cls-1{fill:#fff;}</style></defs><g id="_Слой_1-2"><path id="add" class="cls-1" d="M15.5,0C6.94,0,0,6.94,0,15.5s6.94,15.5,15.5,15.5,15.5-6.94,15.5-15.5S24.06,0,15.5,0ZM20.93,17.2h-3.73v3.72c0,.94-.76,1.7-1.7,1.7s-1.7-.76-1.7-1.7v-3.72h-3.72c-.94,0-1.7-.76-1.7-1.7s.76-1.7,1.7-1.7h3.72v-3.72c0-.94.76-1.7,1.7-1.7s1.7.76,1.7,1.7v3.72h3.73c.93,0,1.7.76,1.7,1.7s-.77,1.7-1.7,1.7Z"/></g></svg>