<?xml version="1.0" encoding="UTF-8"?><svg id="_Слой_2" xmlns="http://www.w3.org/2000/svg" width="42.75" height="15.13" viewBox="0 0 42.75 15.13"><defs><style>.cls-1{fill:#fff;}</style></defs><g id="_Слой_1-2"><path class="cls-1" d="M42.52,8.44c-.31-.68-.9-1.18-1.55-1.55-1.28-.73-3.21-1.18-5.41-1.47-2.24-.29-4.88-.43-7.68-.47-5.6-.07-11.92.26-17.04.6-2.56.17-4.83.35-6.55.48-.22.02-.43.03-.63.05L8.18,1.72c.4-.38.41-1.02.03-1.41-.38-.4-1.02-.41-1.41-.03L.31,6.51c-.4.38-.41,1.02-.03,1.41l6.23,6.49c.38.4,1.02.41,1.41.03.4-.38.41-1.02.03-1.41l-4.72-4.92c.37-.03.77-.06,1.2-.09,1.73-.13,3.99-.3,6.54-.47,5.1-.34,11.36-.67,16.88-.6,2.76.04,5.32.17,7.45.45,2.16.28,3.76.7,4.68,1.23.46.26.65.49.72.65.06.12.09.3-.04.63-.15.36-.49.84-1.14,1.46-.64.61-1.54,1.3-2.75,2.09l1.09,1.68c1.27-.83,2.27-1.59,3.03-2.32.75-.71,1.31-1.42,1.6-2.14.31-.75.34-1.52.01-2.24Z"/></g></svg>