<svg width="43" height="16" viewBox="0 0 43 16" fill="none" xmlns="http://www.w3.org/2000/svg">
<path d="M0.30709 6.7826C-0.0911911 7.16521 -0.103899 7.79825 0.278711 8.19653L6.51367 14.6869C6.89628 15.0852 7.52932 15.0979 7.9276 14.7153C8.32588 14.3327 8.33859 13.6997 7.95598 13.3014L2.4138 7.53214L8.18304 1.98995C8.58132 1.60734 8.59403 0.974303 8.21142 0.576021C7.82881 0.177737 7.19577 0.165031 6.79749 0.547639L0.30709 6.7826ZM37.8659 15.4016C39.1334 14.5759 40.1402 13.8067 40.8989 13.0863C41.6498 12.3732 42.2054 11.6633 42.5035 10.9468C42.8143 10.1998 42.8481 9.42869 42.5156 8.71138C42.2007 8.03176 41.6182 7.53472 40.9682 7.16402C39.6837 6.43144 37.7562 5.98004 35.5539 5.6923C33.3188 5.40025 30.6757 5.26275 27.8746 5.22617C22.2706 5.15299 15.9504 5.48323 10.8328 5.82554C8.27221 5.99681 6.00569 6.17162 4.27889 6.30096C2.51432 6.43313 1.38575 6.5113 1.01993 6.50396L0.979796 8.50355C1.46868 8.51337 2.73443 8.42225 4.42828 8.29537C6.15988 8.16567 8.41584 7.99167 10.9663 7.82108C16.0707 7.47965 22.3266 7.1539 27.8485 7.226C30.6105 7.26207 33.1677 7.39752 35.2948 7.67544C37.4549 7.95767 39.0514 8.37324 39.9774 8.90134C40.4327 9.16098 40.627 9.3927 40.701 9.55236C40.7576 9.67433 40.7924 9.85297 40.657 10.1784C40.5089 10.5343 40.171 11.0194 39.5217 11.636C38.8801 12.2452 37.9799 12.9404 36.7742 13.7258L37.8659 15.4016Z" fill="white"/>
</svg>
