<?xml version="1.0" encoding="UTF-8"?><svg id="_Слой_2" xmlns="http://www.w3.org/2000/svg" width="27.75" height="31" viewBox="0 0 27.75 31"><defs><style>.cls-1{fill:#fff;}</style></defs><g id="_Слой_1-2"><g id="basket"><path class="cls-1" d="M1.95,6.55h24.15v21.25c0,1.77-1.43,3.2-3.2,3.2H5.15c-1.77,0-3.2-1.43-3.2-3.2V6.55h0Z"/><path class="cls-1" d="M26.3,1.25h-8.02l-.02-.09c-.15-.68-.75-1.16-1.45-1.16h-5.82c-.69,0-1.29.48-1.45,1.16l-.02.09H1.45c-.8,0-1.45.65-1.45,1.45h0c0,.8.65,1.45,1.45,1.45h24.85c.8,0,1.45-.65,1.45-1.45h0c0-.8-.65-1.45-1.45-1.45Z"/></g></g></svg>