<?xml version="1.0" encoding="UTF-8"?><svg id="_Слой_2" xmlns="http://www.w3.org/2000/svg" width="80" height="51" viewBox="0 0 80 51"><g id="bg_item"><path id="bg_item-2" d="M80,50.59l-1.68-.56v-.94l-1.88-.75-1.05.37c.21,1.26-1.3,2.53-2.72,2.25-.15-.03-1.11-.72-1.26-.75-.72-.14-1.63.3-2.09-.37l-.84.37c-.67-.79-1.81-.57-2.51-.75-.56-.14-1.97-1.99-2.3-2.43,1.26-1.44-1.34-3.17-2.72-3.93l-1.05.37c.02-.73.65-1.18.42-2.06-.03-.13-.34-.21-.42-.37-.06-.12.05-.29,0-.37-.21-.31-.78-.61-1.05-.94l-.63.94v1.68l-1.68.37,1.26-.75-.42-2.06,1.26-2.99-.84-1.68c-.81-.07-.29.85-.42,1.31-.03.12-.32.89-.42,1.12-.44,1.09-1.6,1.16-2.51,2.25l-.84,2.06c-.32-.02-.69.18-.84-.19-.78-1.91-2.03-3.48-3.77-4.49.21-1.19-1.04-1.5-1.88-2.06-.7.93-1.4.04-1.68,0-.63-.1-1.49.12-2.09,0-.84-.16-1.2-1.03-2.93-.75-.16.03-.27.36-.42.37-.79.09-1.73-.1-2.51,0-.15.02-.25.34-.42.37-.37.08-.91-.09-1.26,0-.32.08-2.53,1.6-3.35,1.87-1.27.42-2.8.14-3.77.37-.21.05-2.51,1.83-3.35,2.25-1.46.73-.66.44-1.05,1.68-.16.51-1.51.96-1.88,1.31-.7-.87-1-.05-1.26,0-1.63.33-3.92-.09-5.86.37-.23.05-.67.65-1.47.37.03.97-1,1.69-2.09,1.5v.75h-.84v.75c-.67-.21-.88.35-1.05.37-.59.09-3.72.12-4.19,0-.22-.05-1.35-1.28-2.09-1.5-.26-.08-.71.04-1.05,0v-1.5c1.09.17,1.09-.72,1.68-1.31-.92-.87-.14-2.6-.42-3.74-.31-1.3-3.43-3.57-2.51-5.61l-1.26-1.5,1.68-2.62c-.8-.87,1.86-3.16,2.09-4.12.37-1.53.03-3.05.84-4.87,1-2.24,1.71-1.66.84-4.49-.1-.33.66-.94.42-1.87-.04-.17-.65-.33-.42-.94h-1.26v-1.87c1.41.36,1.81-1.01,2.72-1.5.08-.04.79-.36.84-.37.6-.12,3.53-.1,4.19,0,.15.02.24.31.42.37.23.08.56-.07.63,0s.24,1.24,1.05,1.5l.42-.37c.81.26.97,1.43,1.05,1.5s.4-.08.63,0c.18.07.27.35.42.37.51.08,1.16-.08,1.68,0,2.13.34,3.84.07,5.03.37.49.12.98,0,1.26-.37.38.35,1.73.8,1.88,1.31.1.32-.1.81,0,1.12.19.63,2.44,1.3,3.14,1.68.39.21,1.18,1.03,1.68,1.12.83.16,2.06-.14,2.93,0,1.23.2,3.03,1.49,4.19,1.87.22.07,1.19.36,1.26.37,1.21.19,2.9-.4,3.77.37l2.93-1.5,1.26.37,1.26-.75.84.37c.63-.48,1.02-1.26,1.88-1.12l-.42-1.31,1.68-1.12v-.94h.84l.42-1.68c.66-.43.19-1.31,1.05-1.68.96-.42.41,1.13,1.05,1.31.17,1.98,2.97,2.15,2.93,3.74l1.26,1.68.21-1.5c.14-.92-.92-1.91-1.05-2.43-.14-.59.17-2.63,0-2.81l-1.26-.75,2.09.37v1.68l.84.94c-.29-.72.75-1,.84-1.31.32-1.06-.09-2.04-.84-2.81l1.88.37c2.01-1.45,2.63-2.7,2.3-5.05.84-.37,1.66-2.28,2.3-2.43.74-.18,1.47.24,2.09-.75.26.45,1.86.16,2.51,0,.14-.03,1.21-1.03,1.68-1.12.71-.14,1.52-.02,1.88.56.11.17-.08.49,0,.56s.43-.1.63,0c.81.4,1,1.37,1.68,1.87l.21-1.5,1.68-.75v49.78Z"/></g></svg>