<?xml version="1.0" encoding="UTF-8"?><svg id="_Слой_2" xmlns="http://www.w3.org/2000/svg" width="40.81" height="33" viewBox="0 0 40.81 33"><defs><style>.cls-1{fill:#484848;}</style></defs><g id="buy"><g id="buy-2"><path class="cls-1" d="M40.77,3.74c.1-.2-.04-.44-.27-.44H10.82l2.28,13.2h20.89c.11,0,.21-.06.27-.16l6.52-12.6Z"/><path d="M30.75,29.7c0-1.82-1.53-3.3-3.42-3.3s-3.42,1.48-3.42,3.3,1.53,3.3,3.42,3.3,3.42-1.48,3.42-3.3Z"/><path d="M13.55,26.4c-1.82,0-3.3,1.48-3.3,3.3s1.48,3.3,3.3,3.3h.23c1.82,0,3.3-1.48,3.3-3.3s-1.48-3.3-3.3-3.3h-.23Z"/><path d="M1,0C.45,0,0,.45,0,1v1.3c0,.55.45,1,1,1h4.99c.49,0,.9.35.99.83l3.13,18.14c.08.48.5.83.99.83h22.07c.55,0,1-.45,1-1v-1.3c0-.55-.45-1-1-1H14.51c-.49,0-.9-.35-.99-.83l-.43-2.47-2.28-13.2-.43-2.47c-.08-.48-.5-.83-.99-.83H1Z"/></g></g></svg>