<?xml version="1.0" encoding="UTF-8"?><svg id="_Слой_2" xmlns="http://www.w3.org/2000/svg" width="31" height="31" viewBox="0 0 31 31"><defs><style>.cls-1{fill:#484848;}</style></defs><g id="_Слой_1-2"><g id="icon_instagram_footer"><path class="cls-1" d="M7.76,31c-4.28,0-7.76-3.48-7.76-7.76V7.76C0,3.48,3.48,0,7.76,0h15.48c4.28,0,7.76,3.48,7.76,7.76v15.48c0,4.28-3.48,7.76-7.76,7.76H7.76ZM7.76,3.17c-2.53,0-4.6,2.06-4.6,4.6v15.48c0,2.53,2.06,4.6,4.6,4.6h15.48c2.53,0,4.6-2.06,4.6-4.6V7.76c0-2.53-2.06-4.6-4.6-4.6H7.76Z"/><path class="cls-1" d="M15.5,23.43c-4.37,0-7.93-3.56-7.93-7.93s3.56-7.93,7.93-7.93,7.93,3.56,7.93,7.93-3.56,7.93-7.93,7.93ZM15.5,10.74c-2.63,0-4.76,2.14-4.76,4.76s2.14,4.76,4.76,4.76,4.76-2.14,4.76-4.76-2.14-4.76-4.76-4.76Z"/><circle class="cls-1" cx="23.8" cy="7.22" r="1.9"/></g></g></svg>