<?xml version="1.0" encoding="UTF-8"?><svg id="_Слой_2" xmlns="http://www.w3.org/2000/svg" width="31" height="31" viewBox="0 0 31 31"><defs><style>.cls-1{fill:#484848;fill-rule:evenodd;}</style></defs><g id="_Слой_1-2"><path id="icon_vk" class="cls-1" d="M27.89,0H3.11C1.39,0,0,1.39,0,3.11v24.78c0,1.72,1.39,3.11,3.11,3.11h24.78c1.72,0,3.11-1.39,3.11-3.11V3.11c0-1.72-1.39-3.11-3.11-3.11ZM25.08,21.55h-2.28c-.87,0-1.12-.68-2.67-2.19-1.35-1.27-1.93-1.44-2.27-1.44-.46,0-.6.13-.6.76v2c0,.55-.18.87-1.63.87-2.42,0-5.07-1.43-6.96-4.08-2.83-3.87-3.6-6.8-3.6-7.39,0-.33.13-.63.78-.63h2.28c.58,0,.8.25,1.02.87,1.12,3.17,3,5.95,3.77,5.95.29,0,.42-.13.42-.85v-3.28c-.08-1.51-.9-1.63-.9-2.17,0-.25.22-.51.58-.51h3.59c.48,0,.65.25.65.82v4.41c0,.47.21.64.35.64.29,0,.53-.17,1.06-.68,1.64-1.79,2.8-4.55,2.8-4.55.15-.33.41-.63.99-.63h2.28c.69,0,.84.35.69.82-.29,1.3-3.07,5.12-3.07,5.12-.24.38-.34.57,0,.99.24.33,1.04.99,1.57,1.6.98,1.08,1.72,1.98,1.92,2.61.19.63-.14.95-.79.95Z"/></g></svg>