<?xml version="1.0" encoding="UTF-8"?><svg id="_Слой_2" xmlns="http://www.w3.org/2000/svg" width="31" height="31" viewBox="0 0 31 31"><defs><style>.cls-1{fill:#484848;fill-rule:evenodd;}</style></defs><g id="_Слой_1-2"><path id="icon_telegram" class="cls-1" d="M15.5,0C6.94,0,0,6.94,0,15.5s6.94,15.5,15.5,15.5,15.5-6.94,15.5-15.5S24.06,0,15.5,0ZM22.68,10.53c-.23,2.45-1.24,8.4-1.76,11.14-.22,1.16-.65,1.55-1.06,1.59-.9.08-1.59-.59-2.45-1.16-1.37-.89-2.13-1.45-3.46-2.32-1.54-1.01-.54-1.56.34-2.47.23-.23,4.19-3.85,4.27-4.17.01-.04.01-.19-.08-.27-.09-.08-.22-.05-.32-.03-.14.03-2.31,1.47-6.53,4.32-.62.43-1.17.63-1.68.62-.55-.01-1.61-.31-2.41-.57-.97-.31-1.74-.48-1.68-1.02.04-.28.43-.57,1.15-.86,4.52-1.96,7.52-3.27,9.03-3.9,4.3-1.79,5.2-2.1,5.78-2.12.13,0,.41.03.61.18.15.13.19.3.22.43.03.13.05.4.03.61Z"/></g></svg>