<svg width="21" height="28" viewBox="0 0 21 28" fill="none" xmlns="http://www.w3.org/2000/svg">
<path fill-rule="evenodd" clip-rule="evenodd" d="M9.51779 27.0002L1.67252 15.2323C0.600421 13.6241 0.0283203 11.7346 0.0283203 9.80183C0.0283203 7.33076 0.965283 4.94841 2.64673 3.13762C4.50282 1.13876 7.14404 0 9.87178 0C13.2591 0 16.4586 1.71717 18.2988 4.56109L18.5177 4.89942C19.5037 6.4233 20.0283 8.1997 20.0283 10.0148C20.0283 11.8113 19.5144 13.5704 18.5471 15.0844L10.9431 26.9863C10.6123 27.5041 9.85862 27.5114 9.51779 27.0002ZM9.81555 14.0426C7.93544 14.0426 6.4113 12.5184 6.4113 10.6383C6.4113 8.75818 7.93544 7.23404 9.81555 7.23404H10.2411C12.1212 7.23404 13.6453 8.75818 13.6453 10.6383C13.6453 12.5184 12.1212 14.0426 10.2411 14.0426H9.81555Z" fill="#A8A8A8"/>
</svg>
