<?xml version="1.0" encoding="UTF-8"?><svg id="_Слой_2" xmlns="http://www.w3.org/2000/svg" width="213" height="104" viewBox="0 0 213 104"><defs><style>.cls-1,.cls-2{stroke:#fff;stroke-width:.5px;}.cls-3{fill:#fff;}.cls-2{fill:none;}</style></defs><g id="logo"><g id="logo-2"><g id="logo_black"><path d="M50.21,46.73l2.86-7.61h-28.63c-6.87,0-11.04,1.9-12.27,2.85-1.36,1.06-4.25,4.12-4.91,7.92-.65,3.8,3.54,5.81,5.73,6.34h22.9c1.96.76.82,1.58,0,1.9H4.81l-3.27,7.61h38.04c2.73-.95,8.26-4.18,8.59-9.51.33-5.33-4.77-7.29-7.36-7.61h-22.9c-2.29-.51-.95-1.48,0-1.9h32.31Z"/><path d="M53.48,46.73l2.45-7.61,32.31-.32c3.27.85,9.41,3.99,7.77,9.83-.63,2.23-1.83,3.88-3.22,5.08l18.35-14.91h7.36l6.21,15.5c1.47-6.9,8.16-11.51,11.38-12.96,1.84-.92,7.49-2.65,15.78-2.56,2.48-8.64-1.58-13.94-3.92-15.51-16.36-12.43-46.63,4.12-59.72,13.95h-12.68c6.22-7.73,33.13-20.55,45.81-25.99,15.27-5.81,48.1-15.09,57.26-5.71,9.16,9.38,0,26.1-5.73,33.28l-2.86,8.24h-24.95c-3.14.42-9.49,2.35-9.82,6.66-.33,4.31,4.77,4.75,7.36,4.44h23.31l-2.86,8.24h-23.36c-15.11,11.64-48.11,35.16-77.67,37.41-30.1,2.28-29.45-14.69-25.36-23.46l2.45-4.96h20.83c-2.73,10.99,2.32,23.41,36.02,12.25,5.77-1.66,17.81-8.82,33.13-21.24h-14.32l-3.68-16.17-20.45,16.17h-13.5l15.08-12.25c-2.14,1.64-4.6,2.3-6.08,2.42h-25.77l-3.27,9.51h-10.63l6.54-17.43h31.09c1.31-.76.55-1.37,0-1.58l-30.68-.32Z"/><path d="M172.1,47.05l3.27-8.24h37.63l-2.45,8.24h-38.45Z"/><path d="M169.24,56.56l2.86-8.24h37.63l-3.27,8.24h-37.22Z"/><path d="M165.15,66.39l3.27-8.24,37.63.32-3.27,7.92h-37.63Z"/><path d="M42.36,70.35l-2.38,4.07h2.38l1.43-2.82h2.38c.95,0,3.89.41,4.28-1.88.17-1.01-1.57-1.2-2.84-1.2h-4.76l-.49,1.22h5.71s.32.3,0,.61h-5.71Z"/><path class="cls-1" d="M42.36,70.35l-2.38,4.07h2.38l1.43-2.82h2.38c.95,0,3.89.41,4.28-1.88.17-1.01-1.57-1.2-2.84-1.2h-4.76l-.49,1.22h5.71s.32.3,0,.61h-5.71Z"/><path d="M53.49,68.09l-5.73,6.34h2.45l4.5-4.75,2.05,4.75h2.45l-3.68-6.34h-2.05Z"/><path class="cls-1" d="M53.49,68.09l-5.73,6.34h2.45l4.5-4.75,2.05,4.75h2.45l-3.68-6.34h-2.05Z"/><path d="M61.66,69.4l.5-1.31h6.71c.31,0,1.39.15,1.38,1.03-.01,1.64-1.18,2.39-1.88,2.56h-6.07l5.64,2.74h-2.54l-3.19-1.59-.24,1.54h-1.54l1.07-4.23h5.77c.38-.17.1-.75,0-.75h-5.61Z"/><path class="cls-1" d="M61.66,69.4l.5-1.31h6.71c.31,0,1.39.15,1.38,1.03-.01,1.64-1.18,2.39-1.88,2.56h-6.07l5.64,2.74h-2.54l-3.19-1.59-.24,1.54h-1.54l1.07-4.23h5.77c.38-.17.1-.75,0-.75h-5.61Z"/><path d="M74.75,69.35l-2.45,5.07h2.05l2.05-5.07h4.09l.41-1.27h-9.41l-.41,1.27h3.68Z"/><path class="cls-1" d="M74.75,69.35l-2.45,5.07h2.05l2.05-5.07h4.09l.41-1.27h-9.41l-.41,1.27h3.68Z"/><path d="M84.16,70.3l-2.45-1.9-.82.95,2.45,1.9-1.64,3.17h2.05l.82-2.85,6.14-2.54-.41-.95-6.14,2.22Z"/><path class="cls-1" d="M84.16,70.3l-2.45-1.9-.82.95,2.45,1.9-1.64,3.17h2.05l.82-2.85,6.14-2.54-.41-.95-6.14,2.22Z"/></g><g id="logo_white"><path class="cls-3" d="M48.67,45.21l2.86-7.61h-28.63c-6.87,0-11.04,1.9-12.27,2.85-1.36,1.06-4.25,4.12-4.91,7.92-.65,3.8,3.54,5.81,5.73,6.34h22.9c1.96.76.82,1.58,0,1.9H3.27l-3.27,7.61h38.04c2.73-.95,8.26-4.18,8.59-9.51.33-5.33-4.77-7.29-7.36-7.61h-22.9c-2.29-.51-.95-1.48,0-1.9h32.31Z"/><path class="cls-3" d="M51.94,45.21l2.45-7.61,32.31-.32c3.27.85,9.41,3.99,7.77,9.83-.63,2.23-1.83,3.88-3.22,5.08l18.35-14.91h7.36l6.21,15.5c1.47-6.9,8.16-11.51,11.38-12.96,1.84-.92,7.49-2.65,15.78-2.56,2.48-8.64-1.58-13.94-3.92-15.51-16.36-12.43-46.63,4.12-59.72,13.95h-12.68c6.22-7.73,33.13-20.55,45.81-25.99,15.27-5.81,48.1-15.09,57.26-5.71,9.16,9.38,0,26.1-5.73,33.28l-2.86,8.24h-24.95c-3.14.42-9.49,2.35-9.82,6.66-.33,4.31,4.77,4.75,7.36,4.44h23.31l-2.86,8.24h-23.36c-15.11,11.64-48.11,35.16-77.67,37.41-30.1,2.28-29.45-14.69-25.36-23.46l2.45-4.96h20.83c-2.73,10.99,2.32,23.41,36.02,12.25,5.77-1.66,17.81-8.82,33.13-21.24h-14.32l-3.68-16.17-20.45,16.17h-13.5l15.08-12.25c-2.14,1.64-4.6,2.3-6.08,2.42h-25.77l-3.27,9.51h-10.63l6.54-17.43h31.09c1.31-.76.55-1.37,0-1.58l-30.68-.32Z"/><path class="cls-3" d="M170.56,45.53l3.27-8.24h37.63l-2.45,8.24h-38.45Z"/><path class="cls-3" d="M167.7,55.04l2.86-8.24h37.63l-3.27,8.24h-37.22Z"/><path class="cls-3" d="M163.61,64.87l3.27-8.24,37.63.32-3.27,7.92h-37.63Z"/><path class="cls-3" d="M40.83,68.84l-2.38,4.07h2.38l1.43-2.82h2.38c.95,0,3.89.41,4.28-1.88.17-1.01-1.57-1.2-2.84-1.2h-4.76l-.49,1.22h5.71s.32.3,0,.61h-5.71Z"/><path class="cls-2" d="M40.83,68.84l-2.38,4.07h2.38l1.43-2.82h2.38c.95,0,3.89.41,4.28-1.88.17-1.01-1.57-1.2-2.84-1.2h-4.76l-.49,1.22h5.71s.32.3,0,.61h-5.71Z"/><path class="cls-3" d="M51.95,66.57l-5.73,6.34h2.45l4.5-4.75,2.05,4.75h2.45l-3.68-6.34h-2.05Z"/><path class="cls-2" d="M51.95,66.57l-5.73,6.34h2.45l4.5-4.75,2.05,4.75h2.45l-3.68-6.34h-2.05Z"/><path class="cls-3" d="M60.12,67.88l.5-1.31h6.71c.31,0,1.39.15,1.38,1.03-.01,1.64-1.18,2.39-1.88,2.56h-6.07l5.64,2.74h-2.54l-3.19-1.59-.24,1.54h-1.54l1.07-4.23h5.77c.38-.17.1-.75,0-.75h-5.61Z"/><path class="cls-2" d="M60.12,67.88l.5-1.31h6.71c.31,0,1.39.15,1.38,1.03-.01,1.64-1.18,2.39-1.88,2.56h-6.07l5.64,2.74h-2.54l-3.19-1.59-.24,1.54h-1.54l1.07-4.23h5.77c.38-.17.1-.75,0-.75h-5.61Z"/><path class="cls-3" d="M73.21,67.84l-2.45,5.07h2.05l2.05-5.07h4.09l.41-1.27h-9.41l-.41,1.27h3.68Z"/><path class="cls-2" d="M73.21,67.84l-2.45,5.07h2.05l2.05-5.07h4.09l.41-1.27h-9.41l-.41,1.27h3.68Z"/><path class="cls-3" d="M82.62,68.79l-2.45-1.9-.82.95,2.45,1.9-1.64,3.17h2.05l.82-2.85,6.14-2.54-.41-.95-6.14,2.22Z"/><path class="cls-2" d="M82.62,68.79l-2.45-1.9-.82.95,2.45,1.9-1.64,3.17h2.05l.82-2.85,6.14-2.54-.41-.95-6.14,2.22Z"/></g></g></g></svg>