<?xml version="1.0" encoding="UTF-8"?><svg id="_Слой_2" xmlns="http://www.w3.org/2000/svg" width="30" height="24" viewBox="0 0 30 24"><defs><style>.cls-1{fill:#fff;}</style></defs><g id="item"><g id="mountains"><rect width="30" height="24" rx="3.24" ry="3.24"/><path class="cls-1" d="M9.42,12.55l-4.25,5.41c-.26.33-.02.81.39.81h8.46c.42,0,.65-.48.39-.81l-4.21-5.41c-.2-.26-.59-.26-.79,0Z"/><path class="cls-1" d="M18.28,10.49l-5.9,7.52c-.24.31-.02.75.37.75h11.76c.39,0,.61-.45.37-.75l-5.85-7.52c-.19-.24-.55-.24-.73,0Z"/><ellipse class="cls-1" cx="11.93" cy="6.78" rx="1.55" ry="1.55"/></g></g></svg>