<?xml version="1.0" encoding="UTF-8"?><svg id="_Слой_2" xmlns="http://www.w3.org/2000/svg" width="31" height="31" viewBox="0 0 31 31"><defs><style>.cls-1{fill:#fff;}</style></defs><g id="_Слой_1-2"><path id="pen" class="cls-1" d="M30.74,7.72L23.36.26c-.34-.35-.91-.35-1.25,0L5.1,17.4c-.09.09-.16.2-.2.32L.06,29.8c-.26.7.4,1.39,1.11,1.15l12.23-4.53c.13-.04.25-.12.35-.22L30.74,8.97c.34-.35.34-.91,0-1.25ZM11.86,25.31l-6.14,2.43c-.37.15-.78.05-1.06-.23l-1.05-1.09c-.26-.27-.34-.68-.21-1.03l2.47-6.42c.06-.17.31-.12.31.05l.03,1.17c0,.34.3.6.64.57l2.58-.25c.56-.11,1.06.36,1,.92l-.14,2.69c-.02.31.21.58.52.61l.99.11c.25.03.3.38.06.48Z"/></g></svg>